<svg xmlns="http://www.w3.org/2000/svg" width="40.4" height="62.396" viewBox="0 0 40.4 62.396">
  <g id="_001-winners-ribbon" data-name="001-winners-ribbon" transform="translate(-53.83 -1.997)">
    <g id="Group_2331" data-name="Group 2331" transform="translate(53.83 1.998)">
      <path id="Path_1329" data-name="Path 1329" d="M53.4,20.973l1.965.76a1.815,1.815,0,0,0,.876.122c.04.365.1.722.164,1.081a1.815,1.815,0,0,0-.851.333l-1.686,1.177c-1,.7-.83,1.377.388,1.508l2.1.225a1.805,1.805,0,0,0,.928-.132c.133.343.28.678.435,1.01a1.78,1.78,0,0,0-.782.557l-1.323,1.574c-.784.937-.445,1.546.765,1.357l2.083-.325a1.773,1.773,0,0,0,.9-.4c.217.3.436.6.672.877a1.76,1.76,0,0,0-.637.758l-.871,1.863c-.514,1.109-.029,1.607,1.091,1.113l1.926-.854a1.748,1.748,0,0,0,.775-.635c.287.233.586.451.889.665a1.743,1.743,0,0,0-.442.922l-.36,2.024c-.137.786.075,1.2.5,1.189L56.987,59.71c-.319,1.185.3,1.674,1.38,1.1l3.856-2.066a3.379,3.379,0,0,1,3.6.441l3.054,2.757c.91.821,1.687.5,1.734-.728l.9-22.916.449,1.237c.419,1.152,1.116,1.16,1.558.016l.759-1.963c0-.013,0-.024.009-.036l.931,23.663c.048,1.225.824,1.551,1.735.728l3.054-2.757a3.381,3.381,0,0,1,3.6-.441l3.856,2.066c1.082.578,1.7.089,1.38-1.1L82.906,37.635a1.183,1.183,0,0,0,.186-1.067l-.324-2.082a1.781,1.781,0,0,0-.392-.893c.3-.211.6-.428.881-.659a1.794,1.794,0,0,0,.744.62l1.861.868c1.112.519,1.612.031,1.114-1.089l-.851-1.926a1.776,1.776,0,0,0-.572-.734c.234-.28.448-.576.665-.87a1.821,1.821,0,0,0,.856.385l2.022.357c1.208.212,1.564-.388.792-1.342L88.57,27.566a1.835,1.835,0,0,0-.706-.548c.153-.328.3-.661.427-1a1.827,1.827,0,0,0,.879.125l2.048-.177c1.222-.109,1.411-.78.417-1.5l-1.7-1.241a1.85,1.85,0,0,0-.771-.343c.062-.354.122-.708.161-1.069a1.9,1.9,0,0,0,.823-.119l1.931-.7c1.152-.42,1.161-1.118.014-1.558l-1.963-.76a1.885,1.885,0,0,0-.777-.135c-.031-.364-.086-.72-.14-1.079a1.9,1.9,0,0,0,.728-.318l1.683-1.179c1-.7.832-1.382-.389-1.51l-2.095-.225a1.874,1.874,0,0,0-.744.062c-.128-.346-.258-.692-.406-1.026a1.93,1.93,0,0,0,.572-.466l1.32-1.574c.789-.941.446-1.55-.765-1.359l-2.082.324a1.916,1.916,0,0,0-.662.231c-.214-.3-.436-.607-.671-.9a1.954,1.954,0,0,0,.4-.567l.866-1.861c.52-1.114.031-1.614-1.09-1.114l-1.926.854a1.936,1.936,0,0,0-.546.365c-.29-.241-.6-.461-.9-.681a1.989,1.989,0,0,0,.233-.633L83.1,3.86c.211-1.211-.39-1.567-1.342-.793L80.115,4.387a1.943,1.943,0,0,0-.427.485c-.345-.157-.693-.3-1.05-.434a1.918,1.918,0,0,0,.057-.653l-.18-2.045c-.107-1.225-.779-1.413-1.5-.419l-1.244,1.7a1.944,1.944,0,0,0-.286.577c-.374-.061-.746-.123-1.127-.16a1.91,1.91,0,0,0-.115-.639L73.54.867C73.12-.286,72.423-.293,71.982.85l-.759,1.964a1.958,1.958,0,0,0-.128.629c-.381.038-.752.107-1.125.17A1.943,1.943,0,0,0,69.687,3L68.51,1.321c-.7-1-1.378-.831-1.51.387L66.777,3.8a1.921,1.921,0,0,0,.047.674c-.352.134-.7.282-1.039.44a1.951,1.951,0,0,0-.442-.532L63.769,3.063c-.939-.788-1.547-.446-1.357.764l.325,2.082a1.876,1.876,0,0,0,.235.668c-.3.221-.6.442-.887.68A1.952,1.952,0,0,0,61.5,6.84l-1.863-.869c-1.111-.519-1.609-.031-1.113,1.089l.854,1.926A1.93,1.93,0,0,0,59.8,9.6q-.345.429-.662.884a1.894,1.894,0,0,0-.712-.274L56.4,9.849c-1.206-.212-1.562.388-.793,1.341l1.323,1.641a1.893,1.893,0,0,0,.6.5c-.145.331-.27.671-.393,1.013a1.909,1.909,0,0,0-.812-.092l-2.048.178c-1.221.109-1.409.778-.419,1.5l1.7,1.242a1.851,1.851,0,0,0,.775.344c-.053.356-.1.715-.134,1.079a1.848,1.848,0,0,0-.856.112l-1.932.7C52.268,19.835,52.258,20.531,53.4,20.973ZM72.749,7.259A12.939,12.939,0,1,1,59.811,20.2,12.939,12.939,0,0,1,72.749,7.259Z" transform="translate(-52.549 0.003)" fill="#2575e6"/>
      <path id="Path_1330" data-name="Path 1330" d="M109.457,67.388A10.484,10.484,0,1,0,98.974,56.905,10.482,10.482,0,0,0,109.457,67.388Zm-2.808-13.411a.482.482,0,0,1,.153-.472,2.755,2.755,0,0,1,.586-.453,6.908,6.908,0,0,1,.792-.406c.284-.123.546-.231.786-.32a.648.648,0,0,1,.333-.093.609.609,0,0,1,.267.108.567.567,0,0,1,.173.24.793.793,0,0,1,.212.413,2.8,2.8,0,0,1,.04.491V53.7a1.47,1.47,0,0,1-.013.2c-.009.072-.016.152-.02.241s-.011.172-.02.253q-.04.506-.08,1.04c-.026.354-.051.708-.072,1.058s-.04.688-.053,1.012-.02.616-.02.872q-.013.587.02,1.185c.022.4.047.724.072.972a.857.857,0,0,0,.06.1c.023.031.042.06.061.087h.014c.044.026.087.051.126.072s.06.1.06.22a.555.555,0,0,1-.087.333.483.483,0,0,1-.233.173,1.081,1.081,0,0,1-.333.06c-.125,0-.253,0-.386-.006q-.067,0-.14-.007t-.14-.006h-.933a1.073,1.073,0,0,1-.467-.067.151.151,0,0,1-.093-.173.716.716,0,0,1,.154-.26c.084-.1.174-.205.273-.313l.2-.24.013-2.118c0-.391.014-.809.04-1.258s.053-.877.08-1.285c.026-.3.049-.58.067-.839s.026-.466.026-.625h-.014a.683.683,0,0,0-.206.032c-.067.022-.135.042-.205.061a.621.621,0,0,0-.174.067.432.432,0,0,1-.213.04.725.725,0,0,1-.48-.179.647.647,0,0,1-.239-.445Z" transform="translate(-89.258 -36.705)" fill="#2575e6"/>
    </g>
  </g>
</svg>
