<svg xmlns="http://www.w3.org/2000/svg" width="190" height="40" viewBox="0 0 190 40">
  <g id="logo" transform="translate(-119 -42)">
    <text id="E-LEARN" transform="translate(184 74)" fill="#333" font-size="30" font-family="SegoeUI-Bold, Segoe UI" font-weight="700"><tspan x="0" y="0">E-LEARN</tspan></text>
    <g id="_7_Grupo_" data-name="7&lt;Grupo&gt;" transform="translate(43.502 -291.829)">
      <path id="Path_1229" data-name="Path 1229" d="M121.812,339.2v2.951a1.538,1.538,0,0,1,1.192.815v25.156c-3.823-1.19-12.4-3.141-20.8-.121V338.4a14.93,14.93,0,0,1,13.515.037v21a12.307,12.307,0,0,0-5.393.1v-16.2a3.354,3.354,0,0,1,.481-.033,3.3,3.3,0,0,1,.467.124,6.161,6.161,0,0,0,1.911.339V340.81a3.437,3.437,0,0,1-1.041-.208,4.392,4.392,0,0,0-1.334-.255,5.16,5.16,0,0,0-2.775.708l-.66.438v22.135l1.986-.731c4.408-1.625,6.968-.182,7.059-.13l2.252,1.392V336.677l-.759-.422a17.772,17.772,0,0,0-17.185-.414,17.776,17.776,0,0,0-17.186.414l-.759.422v27.482l2.252-1.392c.024-.016,2.628-1.5,7.059.13l1.986.731V341.493l-.66-.438a5.16,5.16,0,0,0-2.775-.708,4.392,4.392,0,0,0-1.334.255,3.441,3.441,0,0,1-1.041.208v2.951a6.165,6.165,0,0,0,1.911-.339,3.406,3.406,0,0,1,.464-.124,3.29,3.29,0,0,1,.484.034v16.2a12.318,12.318,0,0,0-5.393-.1v-21a14.8,14.8,0,0,1,13.515-.042V368c-8.4-3.019-16.975-1.069-20.8.121V342.97a1.536,1.536,0,0,1,1.192-.816V339.2a4.555,4.555,0,0,0-4.028,2.828l-.115.274v30.11l2.041-.847c.115-.048,11.076-4.49,21.192-.6h3.992c10.089-3.875,21.078.554,21.192.6l2.041.847v-30.11l-.115-.274A4.555,4.555,0,0,0,121.812,339.2Z" transform="translate(0 0)" fill="#2575e6"/>
    </g>
  </g>
</svg>
